<svg width="1080" height="1920" viewBox="0 0 1080 1920" fill="none" xmlns="http://www.w3.org/2000/svg">
  <defs>
    <linearGradient id="bg" x1="0" y1="0" x2="1080" y2="1920" gradientUnits="userSpaceOnUse">
      <stop offset="0" stop-color="#F8F9FA"/>
      <stop offset="0.55" stop-color="#FFFFFF"/>
      <stop offset="1" stop-color="#F7EDF9"/>
    </linearGradient>
    <linearGradient id="brand" x1="0" y1="0" x2="1" y2="1">
      <stop stop-color="#E4405F"/>
      <stop offset="1" stop-color="#C13584"/>
    </linearGradient>
    <filter id="shadow" x="0" y="0" width="200%" height="200%" filterUnits="objectBoundingBox">
      <feDropShadow dx="0" dy="20" stdDeviation="20" flood-color="#000" flood-opacity="0.16"/>
    </filter>
  </defs>

  <rect width="1080" height="1920" fill="url(#bg)"/>
  <circle cx="930" cy="1700" r="170" fill="#C13584" fill-opacity="0.10"/>

  <rect x="90" y="88" width="52" height="52" rx="16" fill="url(#brand)"/>
  <path d="M106 114L116 101L126 114L116 127L106 114Z" fill="white"/>
  <text x="158" y="123" fill="#1A1A1A" font-size="44" font-family="Inter, Arial, sans-serif" font-weight="800">Axil</text>
  <text x="240" y="123" fill="url(#brand)" font-size="44" font-family="Inter, Arial, sans-serif" font-weight="800">Tree</text>

  <text x="90" y="278" fill="#1A1A1A" font-size="84" font-family="Inter, Arial, sans-serif" font-weight="900">Manage Links</text>
  <text x="90" y="362" fill="#1A1A1A" font-size="84" font-family="Inter, Arial, sans-serif" font-weight="900">in Seconds</text>
  <text x="90" y="442" fill="#5F6368" font-size="38" font-family="Inter, Arial, sans-serif" font-weight="500">Add, reorder, edit and publish instantly.</text>

  <g filter="url(#shadow)">
    <rect x="90" y="540" width="900" height="820" rx="48" fill="#FFFFFF"/>
  </g>

  <rect x="150" y="640" width="780" height="90" rx="30" fill="url(#brand)"/>
  <text x="210" y="697" fill="#FFF" font-size="34" font-family="Inter, Arial, sans-serif" font-weight="700">1</text>
  <text x="270" y="697" fill="#FFF" font-size="30" font-family="Inter, Arial, sans-serif" font-weight="700">Main Product</text>

  <rect x="150" y="760" width="780" height="90" rx="30" fill="#F8F9FA" stroke="#E5E7EB"/>
  <text x="210" y="817" fill="#3C4043" font-size="34" font-family="Inter, Arial, sans-serif" font-weight="700">2</text>
  <text x="270" y="817" fill="#3C4043" font-size="30" font-family="Inter, Arial, sans-serif" font-weight="700">YouTube Channel</text>

  <rect x="150" y="880" width="780" height="90" rx="30" fill="#F8F9FA" stroke="#E5E7EB"/>
  <text x="210" y="937" fill="#3C4043" font-size="34" font-family="Inter, Arial, sans-serif" font-weight="700">3</text>
  <text x="270" y="937" fill="#3C4043" font-size="30" font-family="Inter, Arial, sans-serif" font-weight="700">Instagram Profile</text>

  <rect x="150" y="1000" width="780" height="90" rx="30" fill="#F8F9FA" stroke="#E5E7EB"/>
  <text x="210" y="1057" fill="#3C4043" font-size="34" font-family="Inter, Arial, sans-serif" font-weight="700">4</text>
  <text x="270" y="1057" fill="#3C4043" font-size="30" font-family="Inter, Arial, sans-serif" font-weight="700">Book a Call</text>

  <text x="150" y="1178" fill="#1A1A1A" font-size="34" font-family="Inter, Arial, sans-serif" font-weight="800">Drag &amp; Drop Reordering</text>
  <text x="150" y="1230" fill="#5F6368" font-size="30" font-family="Inter, Arial, sans-serif" font-weight="500">Put your most important links on top.</text>

  <rect x="90" y="1420" width="900" height="92" rx="46" fill="url(#brand)"/>
  <text x="540" y="1479" text-anchor="middle" fill="#FFF" font-size="34" font-family="Inter, Arial, sans-serif" font-weight="800">Control Your Link Order Easily</text>

  <text x="540" y="1812" text-anchor="middle" fill="#6F7277" font-size="28" font-family="Inter, Arial, sans-serif" font-weight="600">axiltree.in</text>
</svg>